<svg xmlns="http://www.w3.org/2000/svg" viewBox="0 0 400 120">
  <defs>
    <!-- Sunset Gradient for SARO (Nature/Sun) -->
    <linearGradient id="saroGradient" x1="0%" y1="0%" x2="100%" y2="0%">
      <stop offset="0%" style="stop-color:#FFD700;stop-opacity:1" />
      <stop offset="50%" style="stop-color:#FF7E5F;stop-opacity:1" />
      <stop offset="100%" style="stop-color:#FF4500;stop-opacity:1" />
    </linearGradient>
    
    <!-- City Gradient for LA (Architecture/Steel) -->
    <linearGradient id="laGradient" x1="0%" y1="100%" x2="0%" y2="0%">
      <stop offset="0%" style="stop-color:#2a2a2a;stop-opacity:1" />
      <stop offset="50%" style="stop-color:#4a90e2;stop-opacity:1" />
      <stop offset="100%" style="stop-color:#87CEEB;stop-opacity:1" />
    </linearGradient>

    <filter id="shadow">
      <feDropShadow dx="1" dy="1" stdDeviation="1" flood-color="#000" flood-opacity="0.5"/>
    </filter>
  </defs>

  <!-- SARO: Stylized as fluid, organic waves/sun -->
  <!-- Using a font for base but masking it or styling to look like liquid gold -->
  <text x="20" y="85" font-family="'Playfair Display', serif" font-size="50" font-weight="900" fill="url(#saroGradient)" letter-spacing="2" filter="url(#shadow)">SARO</text>
  
  <!-- "LA" constructed from Building Shapes -->
  <g transform="translate(180, 25)">
    <!-- L formed by a tall tower and a lower block -->
    <!-- Vertical part of L: Skyscraper -->
    <path d="M10 0 L35 0 L35 60 L10 60 Z" fill="url(#laGradient)" />
    <!-- Windows L -->
    <rect x="15" y="5" width="15" height="2" fill="white" opacity="0.4"/>
    <rect x="15" y="10" width="15" height="2" fill="white" opacity="0.4"/>
    <rect x="15" y="15" width="15" height="2" fill="white" opacity="0.4"/>
    <rect x="15" y="20" width="15" height="2" fill="white" opacity="0.4"/>
    
    <!-- Horizontal part of L: Convention center style low building -->
    <path d="M35 40 L70 40 L70 60 L35 60 Z" fill="url(#laGradient)" />
     <rect x="40" y="45" width="25" height="10" fill="white" opacity="0.3"/>

    <!-- A formed by two leaning towers or a City Hall shape -->
    <!-- Using a simplified City Hall silhouette for 'A' -->
    <path d="M100 0 L125 0 L145 60 L80 60 Z" fill="none" /> <!-- Spacer -->
    
    <!-- Left leg of A -->
    <path d="M95 60 L110 10 L115 10 L100 60 Z" fill="url(#laGradient)" />
    <!-- Right leg of A -->
    <path d="M115 10 L120 10 L135 60 L120 60 Z" fill="url(#laGradient)" />
    <!-- Crossbar of A -->
    <rect x="103" y="40" width="24" height="6" fill="url(#laGradient)" />
    <!-- A Cap (City Hall top) -->
    <path d="M110 10 L115 -5 L120 10 Z" fill="#FFD700" /> 
    
    <!-- "The" City of Angels text underneath or integrated? -->
  </g>
  
  <!-- Connecting line -->
  <path d="M20 95 L160 95" stroke="url(#saroGradient)" stroke-width="2" />
  <circle cx="160" cy="95" r="3" fill="#FFD700" />
  
  <!-- Subtext -->
  <text x="185" y="105" font-family="'Inter', sans-serif" font-size="10" fill="#bbb" letter-spacing="4">LOS ANGELES</text>

</svg>
